# xmcd CD database file
#
# Track frame offsets:
#	150
#	15739
#	34212
#	50073
#	65359
#	78409
#	95215
#	110919
#	127480
#	141315
#	155582
#	174651
#	188138
#	201166
#	217013
#	231754
#	245133
#
# Disc length: 3527 seconds
#
# Revision: 2
# Processed by: cddbd v1.5.2PL0 Copyright (c) Steve Scherf et al.
# Submitted via: CDex 1.84
#
DISCID=100dc511
DTITLE=Sara Storer - Calling Me Home - The Best Of Sara Storer [Disc 2]
DYEAR=2010
DGENRE=Country
TTITLE0=Mallee Girl
TTITLE1=Darwin Love
TTITLE2=Molly Green
TTITLE3=Sara Storer And Josh Cunningham - Important Things
TTITLE4=Sara Storer And The Sunny Cowgirls - Dungarees
TTITLE5=Star
TTITLE6=Sara Storer And Shane Howard - Christmas In The Country (Jimmy's Christmas)
TTITLE7=One Perfect Day
TTITLE8=Boss Drovers Pride
TTITLE9=Sara Storer And Greg Storer - When I Was A Boy
TTITLE10=Won't Give In
TTITLE11=Sara Storer And Paul Kelly - Must Have Been A Hell Of A Party
TTITLE12=Since I've Gone
TTITLE13=Sara Storer And Greg Storer - Chillers Bend
TTITLE14=Moonstruck
TTITLE15=Night After Night
TTITLE16=Sweet Dreams
EXTD=YEAR: 2010
EXTT0=
EXTT1=
EXTT2=
EXTT3=
EXTT4=
EXTT5=
EXTT6=
EXTT7=
EXTT8=
EXTT9=
EXTT10=
EXTT11=
EXTT12=
EXTT13=
EXTT14=
EXTT15=
EXTT16=
PLAYORDER=
